<svg xmlns="http://www.w3.org/2000/svg" viewBox="0 0 9.73 9.73"><defs><style>.cls-1{fill:#bfbdbe;}</style></defs><g id="Capa_2" data-name="Capa 2"><g id="Capa_1-2" data-name="Capa 1"><path class="cls-1" d="M9.73,4.5v.74c0,.1,0,.21,0,.31a4.8,4.8,0,0,1-3.41,4,7.11,7.11,0,0,1-1,.22H4.46l-.3,0A4.82,4.82,0,0,1,.27,6.45,9.44,9.44,0,0,1,0,5.28V4.5c0-.06,0-.12,0-.19a4.75,4.75,0,0,1,3.12-4A8.44,8.44,0,0,1,4.5,0h.74l.33.05a4.81,4.81,0,0,1,4,3.46A8.24,8.24,0,0,1,9.73,4.5ZM4.87.61A4.26,4.26,0,1,0,9.13,4.9,4.27,4.27,0,0,0,4.87.61Z"/><path class="cls-1" d="M2.2,5.85l.53-.2A2.25,2.25,0,0,0,4.89,7.12,2.24,2.24,0,0,0,7,5.66l.52.19a2.82,2.82,0,0,1-5.32,0Z"/><path class="cls-1" d="M4,4a.68.68,0,0,1-.7.68.7.7,0,0,1-.69-.71.72.72,0,0,1,.72-.69A.69.69,0,0,1,4,4Z"/><path class="cls-1" d="M6.38,4.64a.68.68,0,0,1-.68-.71.7.7,0,0,1,.7-.69.7.7,0,1,1,0,1.4Z"/></g></g></svg>