<svg xmlns="http://www.w3.org/2000/svg" viewBox="0 0 225 225"><defs><style>.cls-1{fill:#bfbdbe;}</style></defs><g id="Capa_2" data-name="Capa 2"><g id="Capa_1-2" data-name="Capa 1"><path class="cls-1" d="M225,104v17c-.36,2.42-.65,4.85-1.08,7.26-8.27,46-34.34,76.78-78.67,91.66-7.77,2.61-16.15,3.43-24.25,5.08H103c-2.26-.37-4.52-.69-6.77-1.1-44.05-8.08-74.42-32.8-90-74.9C3.08,140.4,2,131,0,122V104c.3-1.43.7-2.84.9-4.29C7.11,54.94,31.44,24.08,73.15,7.33,82.85,3.44,93.69,2.37,104,0h17c2.61.37,5.24.65,7.83,1.14,46.29,8.67,77.09,35.19,91.58,80.09C222.77,88.55,223.51,96.4,225,104ZM112.65,14c-54.09,0-98.13,43.77-98.8,97C13.16,165.92,58,210.93,111,211c55.53.08,100-43.37,100-97.71C211,58.05,167.39,14,112.65,14Z"/><path class="cls-1" d="M50.82,135.28,63.2,130.7c9.85,21.57,26.17,34.05,49.77,33.92,23.22-.14,39.15-12.67,48.78-33.91l12.07,4.41c-3.77,20.2-30.9,40.91-54.32,43.08C84.62,181.44,58.38,158.34,50.82,135.28Z"/><path class="cls-1" d="M93.24,91.46c-.13,9.08-7.16,15.81-16.38,15.69A16.12,16.12,0,0,1,61,90.77,16.37,16.37,0,0,1,77.57,75,15.94,15.94,0,0,1,93.24,91.46Z"/><path class="cls-1" d="M147.58,107.17a15.68,15.68,0,0,1-15.82-16.25A16,16,0,0,1,148,75a16.1,16.1,0,1,1-.42,32.19Z"/></g></g></svg>