<svg xmlns="http://www.w3.org/2000/svg" viewBox="0 0 229.76 192.46"><defs><style>.cls-1{fill:#48353a;}</style></defs><g id="Capa_2" data-name="Capa 2"><g id="Capa_1-2" data-name="Capa 1"><path class="cls-1" d="M199.25,104.79h-3q-92.86,0-185.72,0c-2.78,0-5.46-.06-7.69-2.13A8.72,8.72,0,0,1,.57,93.11a8.16,8.16,0,0,1,7.62-5.43c1.08,0,2.17,0,3.25,0H200c-1-1.11-1.66-1.82-2.32-2.48q-34.72-34.8-69.48-69.58c-2.82-2.83-4.17-6-2.78-9.9a8.67,8.67,0,0,1,13.76-3.62c.51.43,1,.93,1.43,1.4q42.63,42.6,85.27,85.19c3,3,5,6.31,3.26,10.66a10.67,10.67,0,0,1-2.35,3.46q-43.47,43.53-87,87a8.62,8.62,0,0,1-12.51,0c-3.41-3.46-3.24-8.7.52-12.48q34.89-35,69.83-69.92a11.44,11.44,0,0,1,2.58-1.49Z"/></g></g></svg>