<svg xmlns="http://www.w3.org/2000/svg" viewBox="0 0 50 50"><defs><style>.cls-1{fill:#48353a;}</style></defs><g id="Capa_2" data-name="Capa 2"><g id="Capa_1-2" data-name="Capa 1"><path class="cls-1" d="M0,25V7.62A7.35,7.35,0,0,1,5.08.41,7.24,7.24,0,0,1,7.43,0Q25,0,42.57,0A7.39,7.39,0,0,1,50,7.45Q50,25,50,42.55A7.4,7.4,0,0,1,42.53,50h-35A7.42,7.42,0,0,1,0,42.51ZM25,4.18H7.72A3.38,3.38,0,0,0,4.77,5.56a3.67,3.67,0,0,0-.6,2.23q0,17.21,0,34.42c0,.19,0,.39,0,.59a3.15,3.15,0,0,0,1.73,2.65,3.79,3.79,0,0,0,1.87.38H42.51a3.23,3.23,0,0,0,2.7-1.36,3.65,3.65,0,0,0,.62-2.27q0-17.19,0-34.38V7.52A3.25,3.25,0,0,0,44.48,4.8a3.7,3.7,0,0,0-2.26-.63Z"/><path class="cls-1" d="M25,37.5A12.5,12.5,0,1,1,37.48,25,12.49,12.49,0,0,1,25,37.5Zm0-4.17A8.33,8.33,0,1,0,16.67,25,8.33,8.33,0,0,0,25,33.33Z"/><path class="cls-1" d="M38.54,14.58a3.12,3.12,0,1,1,3.12-3.12A3.09,3.09,0,0,1,38.54,14.58Z"/></g></g></svg>