<svg xmlns="http://www.w3.org/2000/svg" viewBox="0 0 51 50.99"><defs><style>.cls-1{fill:#48353a;}</style></defs><g id="Capa_2" data-name="Capa 2"><g id="Capa_1-2" data-name="Capa 1"><path class="cls-1" d="M51,29.31a20.37,20.37,0,0,0-1-6.8,10,10,0,0,0-5.41-6.06A16.33,16.33,0,0,0,39,15.16a11.88,11.88,0,0,0-8.82,2.68l-.1.09c-.11-1.15-.73-1.65-2-1.65H19.47c-1.4,0-2,.63-2,2V49c0,1.39.65,2,2,2h9c1.55,0,2.16-.6,2.16-2.16V44.91q0-6.3,0-12.6a7.74,7.74,0,0,1,.24-2.13c.66-2.31,1.72-3.19,3.66-3a2.77,2.77,0,0,1,2.26,1.37,7.31,7.31,0,0,1,1,4.21V49c0,1.4.63,2,2,2h9.1A1.81,1.81,0,0,0,51,48.92V43.74Q51,36.53,51,29.31Zm-9.88,2.91a9.5,9.5,0,0,0-1.59-5.65,5.79,5.79,0,0,0-4.74-2.75,6.58,6.58,0,0,0-7.11,5.48,13,13,0,0,0-.33,2.81c0,1.46,0,2.91,0,4.36v1.86A1.68,1.68,0,0,0,25.54,40c-.06,1.12.76,1.47,1.76,1.67V43a1.58,1.58,0,0,0-1.46.75,2,2,0,0,0-.29,1c0,1.1.82,1.43,1.74,1.58v1.33H20.8v-28h5.94V22a1.62,1.62,0,0,0,1.08,1.54,1.59,1.59,0,0,0,1.83-.45l.67-.76c.47-.52.95-1.07,1.45-1.57a7.93,7.93,0,0,1,5.51-2.3,15.57,15.57,0,0,1,4.51.46,7.09,7.09,0,0,1,5.35,5.52,19,19,0,0,1,.52,4.62q0,6.93,0,13.86v4.72H41.12V43Q41.12,37.59,41.11,32.22Z"/><path class="cls-1" d="M12.43,16.28H3.24c-1.47,0-2.08.61-2.08,2.08V48.93c0,1.42.64,2.06,2.06,2.06h9c1.47,0,2.1-.62,2.1-2.07V18.21A1.72,1.72,0,0,0,12.43,16.28ZM11,38.37C10,38.58,9.24,39,9.24,40s.83,1.46,1.77,1.65V43h-.14a1.66,1.66,0,0,0,0,3.32H11v1.3H4.51v-28H11Z"/><path class="cls-1" d="M7.44,0A7.61,7.61,0,0,0,2.11,2.3,7.28,7.28,0,0,0,0,7.51,7.53,7.53,0,0,0,7.45,15h.09A7.51,7.51,0,0,0,15,7.43,7.41,7.41,0,0,0,12.7,2.15,7.39,7.39,0,0,0,7.44,0Zm4.19,7.47a4.15,4.15,0,0,1-4.16,4.16h0a4.16,4.16,0,0,1,0-8.31h0A4.18,4.18,0,0,1,11.63,7.47Z"/></g></g></svg>