<svg xmlns="http://www.w3.org/2000/svg" viewBox="0 0 50 39.88"><defs><style>.cls-1{fill:#48353a;}</style></defs><g id="Capa_2" data-name="Capa 2"><g id="Capa_1-2" data-name="Capa 1"><path class="cls-1" d="M25,39.88H5.6a5.55,5.55,0,0,1-3.53-1A5.11,5.11,0,0,1,0,34.54V18.23q0-6.48,0-13A5,5,0,0,1,3.9.17,6.36,6.36,0,0,1,5.53,0H44.47C47.91,0,50,2.1,50,5.54v29a5,5,0,0,1-3.9,5.17,6.87,6.87,0,0,1-1.76.16Zm21.11-32L46,7.8c-.17.17-.34.34-.5.52-5,5.24-10,10.49-15,15.71A7,7,0,0,1,26,26.11a8.15,8.15,0,0,1-7.16-2.79c-4.75-5.1-9.6-10.11-14.41-15.15-.13-.13-.28-.25-.53-.47V30.64c0,1.27,0,2.54,0,3.81,0,1,.47,1.5,1.53,1.52H44.24c1.52,0,1.87-.35,1.87-1.85V7.84ZM5.86,3.94c.14.17.22.27.31.36q8,8.47,16.07,16.93a4.15,4.15,0,0,0,5.5,0l16-16.76.41-.49Z"/></g></g></svg>